<?xml version="1.0" encoding="UTF-8"?>
<svg id="Layer_2" data-name="Layer 2" xmlns="http://www.w3.org/2000/svg" viewBox="0 0 64.5 64.5">
  <defs>
    <style>
      .cls-1 {
        fill: none;
      }

      .cls-1, .cls-2 {
        stroke: #1c6b87;
        stroke-miterlimit: 10;
        stroke-width: .5px;
      }

      .cls-2 {
        fill: #fee89a;
      }
    </style>
  </defs>
  <g id="Layer_1-2" data-name="Layer 1">
    <g>
      <g>
        <rect class="cls-1" x=".25" y=".25" width="64" height="64"/>
        <line class="cls-1" x1=".25" y1="57.14" x2="64.25" y2="57.14"/>
        <line class="cls-1" x1=".25" y1="50.03" x2="64.25" y2="50.03"/>
        <line class="cls-1" x1=".25" y1="42.92" x2="64.25" y2="42.92"/>
        <line class="cls-1" x1=".25" y1="35.81" x2="64.25" y2="35.81"/>
        <line class="cls-1" x1=".25" y1="28.69" x2="64.25" y2="28.69"/>
        <line class="cls-1" x1=".25" y1="21.58" x2="64.25" y2="21.58"/>
        <line class="cls-1" x1=".25" y1="14.47" x2="64.25" y2="14.47"/>
        <line class="cls-1" x1=".25" y1="7.36" x2="64.25" y2="7.36"/>
        <line class="cls-1" x1="57.14" y1=".25" x2="57.14" y2="64.25"/>
        <line class="cls-1" x1="50.03" y1=".25" x2="50.03" y2="64.25"/>
        <line class="cls-1" x1="42.92" y1=".25" x2="42.92" y2="64.25"/>
        <line class="cls-1" x1="35.81" y1=".25" x2="35.81" y2="64.25"/>
        <line class="cls-1" x1="28.69" y1=".25" x2="28.69" y2="64.25"/>
        <line class="cls-1" x1="21.58" y1=".25" x2="21.58" y2="64.25"/>
        <line class="cls-1" x1="14.47" y1=".25" x2="14.47" y2="64.25"/>
        <line class="cls-1" x1="7.36" y1=".25" x2="7.36" y2="64.25"/>
      </g>
      <rect class="cls-2" x="21.47" y="35.74" width="7.17" height="7.17"/>
      <rect class="cls-2" x="28.65" y="14.47" width="7.17" height="7.17"/>
      <rect class="cls-2" x="28.68" y="42.84" width="7.17" height="7.17"/>
      <rect class="cls-2" x="14.53" y="35.74" width="7.17" height="7.17"/>
      <rect class="cls-2" x="21.47" y="28.68" width="7.17" height="7.17"/>
      <rect class="cls-2" x="21.47" y="21.61" width="7.17" height="7.17"/>
      <rect class="cls-2" x="14.53" y="28.68" width="7.17" height="7.17"/>
      <rect class="cls-2" x="14.53" y="21.61" width="7.17" height="7.17"/>
      <rect class="cls-2" x="42.9" y="50.04" width="7.17" height="7.17"/>
      <rect class="cls-2" x="42.9" y="42.92" width="7.17" height="7.17"/>
      <rect class="cls-2" x="42.89" y="7.36" width="7.17" height="7.17"/>
      <rect class="cls-2" x="42.89" y="14.45" width="7.17" height="7.17"/>
    </g>
  </g>
</svg>