<?xml version="1.0" encoding="UTF-8"?>
<svg id="Layer_2" data-name="Layer 2" xmlns="http://www.w3.org/2000/svg" viewBox="0 0 67 67">
  <defs>
    <style>
      .cls-1 {
        fill: #e6e6e6;
      }

      .cls-2 {
        fill: none;
        stroke: #e6e6e6;
        stroke-miterlimit: 10;
        stroke-width: 3px;
      }
    </style>
  </defs>
  <g id="dos">
    <g>
      <rect class="cls-2" x="1.5" y="1.5" width="64" height="64" rx="8.27" ry="8.27"/>
      <g>
        <path class="cls-1" d="M33.6,50.22c-.11,0-.22-.02-.33-.05-.21-.07-.39-.21-.51-.38l-1.16-1.55c-.47-.62-1.21-1-2-1H12.53c-.57,0-1.03-.46-1.03-1.03V17.81c0-.57,.46-1.03,1.03-1.03H29.84c1.37,0,2.64,.67,3.41,1.8l.35,.52,.35-.52c.77-1.13,2.04-1.8,3.41-1.8h17.1c.57,0,1.03,.46,1.03,1.03v28.39c0,.57-.46,1.03-1.03,1.03h-16.86c-.78,0-1.53,.37-1.99,1l-1.18,1.57c-.2,.26-.51,.41-.83,.41h0Zm1.03-28.96v25.02c.82-.7,1.87-1.1,2.97-1.1h15.83V18.85h-16.07c-.68,0-1.32,.34-1.7,.9l-1.03,1.51ZM13.56,45.17H29.6c1.09,0,2.15,.4,2.97,1.1V21.26l-1.03-1.51c-.38-.56-1.02-.9-1.7-.9H13.56v26.32Z"/>
        <path class="cls-1" d="M27.33,27.87h2.52v2.06h-2.52v-2.06Z"/>
        <path class="cls-1" d="M16.55,27.87h8.73v2.06h-8.73v-2.06Z"/>
        <path class="cls-1" d="M22,33.64h7.86v2.06h-7.86v-2.06Z"/>
        <path class="cls-1" d="M16.55,33.64h3.45v2.06h-3.45v-2.06Z"/>
        <path class="cls-1" d="M26.25,39.41h3.6v2.06h-3.6v-2.06Z"/>
        <path class="cls-1" d="M16.55,39.41h7.78v2.06h-7.78v-2.06Z"/>
        <path class="cls-1" d="M45.84,27.87h4.82v2.06h-4.82v-2.06Z"/>
        <path class="cls-1" d="M37.35,27.87h6.51v2.06h-6.51v-2.06Z"/>
        <path class="cls-1" d="M16.55,22.1h13.31v2.06h-13.31v-2.06Z"/>
        <path class="cls-1" d="M37.35,22.1h13.31v2.06h-13.31v-2.06Z"/>
        <path class="cls-1" d="M41.79,33.64h8.86v2.06h-8.86v-2.06Z"/>
        <path class="cls-1" d="M37.35,33.64h2.42v2.06h-2.42v-2.06Z"/>
        <path class="cls-1" d="M37.35,39.41h7.69v2.06h-7.69v-2.06Z"/>
      </g>
    </g>
  </g>
</svg>