<?xml version="1.0" encoding="UTF-8"?>
<svg id="Layer_2" data-name="Layer 2" xmlns="http://www.w3.org/2000/svg" viewBox="0 0 67 67">
  <defs>
    <style>
      .cls-1 {
        fill: none;
        stroke-width: 3px;
      }

      .cls-1, .cls-2, .cls-3 {
        stroke: #1c6b87;
        stroke-miterlimit: 10;
      }

      .cls-2, .cls-3 {
        fill: #1c6b87;
        stroke-width: .75px;
      }

      .cls-3 {
        fill-rule: evenodd;
      }
    </style>
  </defs>
  <g id="Layer_1-2" data-name="Layer 1">
    <g>
      <g>
        <path class="cls-2" d="M21.12,28.51c1.13,0,2.05-.92,2.05-2.05s-.92-2.05-2.05-2.05-2.05,.92-2.05,2.05,.92,2.05,2.05,2.05Z"/>
        <path class="cls-2" d="M15.55,34.8c1.13,0,2.05-.92,2.05-2.05s-.92-2.05-2.05-2.05-2.05,.92-2.05,2.05,.92,2.05,2.05,2.05Z"/>
        <path class="cls-3" d="M50.95,13.03c-2.32-1.2-5.17-.29-6.37,2.02l-5.24,10.12c-.03,.05-.05,.11-.07,.17-2.57-.09-5.11,1.05-6.83,3.05-2.02,2.37-4.51,4.95-6.63,6.26-3.03,1.88-5.53,2.56-7.09,2.8-.91,.14-1.65,.73-2.01,1.49-.38,.79-.35,1.83,.38,2.64,1.59,1.75,4.68,4.61,10.35,8.22,3.93,2.5,7.45,3.88,9.35,4.52,1.45,.49,3.01-.07,3.84-1.32,1.05-1.58,2.91-4.56,4.5-8.18,1.18-2.68,2.19-5.44,3.16-8.2,.82-2.33,.45-4.78-.79-6.72l5.46-10.49c1.21-2.32,.3-5.18-2.02-6.38Zm-5.51,14.7l5.02-9.63c.49-.93,.12-2.08-.81-2.56-.93-.48-2.08-.12-2.56,.81l-4.98,9.61c.17,.07,.33,.15,.5,.23l1.82,.92c.36,.18,.7,.39,1.02,.62Zm.19,7.95c-.2,.57-.41,1.17-.63,1.77l-11.47-6.02c.37-.41,.72-.82,1.06-1.21,1.71-2,4.51-2.64,6.74-1.51l1.82,.92c2.24,1.14,3.3,3.71,2.48,6.04Zm-18.33,1.38c1.39-.86,2.85-2.13,4.21-3.49h.02s12.47,6.55,12.47,6.55c-.48,1.25-.97,2.47-1.45,3.56-1.5,3.42-3.26,6.25-4.26,7.75-.14,.21-.37,.28-.59,.21-.83-.28-2.03-.72-3.45-1.37,.66-.7,1.62-1.83,2.53-3.39,.4-.67,.17-1.53-.51-1.91-.68-.38-1.55-.14-1.95,.53-.74,1.25-1.64,2.49-2.74,3.46-.84-.45-1.72-.97-2.63-1.54-.74-.47-1.43-.92-2.07-1.36,.34-.23,.7-.5,1.1-.84,.59-.51,.65-1.39,.13-1.97-.52-.58-1.43-.63-2.02-.12-.87,.75-1.49,1.04-1.73,1.13-2.25-1.69-3.76-3.08-4.73-4.09,1.89-.35,4.56-1.18,7.66-3.1Z"/>
      </g>
      <rect class="cls-1" x="1.5" y="1.5" width="64" height="64" rx="8.27" ry="8.27"/>
    </g>
  </g>
</svg>