<?xml version="1.0" encoding="UTF-8"?>
<svg id="Layer_2" data-name="Layer 2" xmlns="http://www.w3.org/2000/svg" viewBox="0 0 67 67">
  <defs>
    <style>
      .cls-1 {
        fill: #e6e6e6;
      }

      .cls-2 {
        fill: none;
        stroke: #e6e6e6;
        stroke-miterlimit: 10;
        stroke-width: 3px;
      }
    </style>
  </defs>
  <g id="dos">
    <g>
      <rect class="cls-2" x="1.5" y="1.5" width="64" height="64" rx="8.27" ry="8.27"/>
      <g>
        <path class="cls-1" d="M54.8,29.86l-5.6-1.4c-.28-.88-.63-1.71-1.04-2.51l2.97-4.95c.22-.36,.16-.82-.14-1.12l-3.89-3.89c-.3-.3-.76-.35-1.12-.14l-4.95,2.97c-.79-.42-1.63-.76-2.51-1.04l-1.4-5.6c-.1-.41-.47-.69-.89-.69h-5.5c-.42,0-.79,.29-.89,.69l-1.4,5.6c-.88,.28-1.71,.63-2.51,1.04l-4.95-2.97c-.36-.21-.82-.16-1.12,.14l-3.89,3.89c-.3,.3-.35,.76-.14,1.12l2.97,4.95c-.42,.79-.76,1.63-1.04,2.51l-5.6,1.4c-.41,.1-.69,.47-.69,.89v5.5c0,.42,.29,.79,.69,.89l5.6,1.4c.28,.88,.63,1.71,1.04,2.51l-2.97,4.95c-.22,.36-.16,.82,.14,1.12l3.89,3.89c.3,.3,.76,.35,1.12,.14l4.95-2.97c.79,.42,1.63,.76,2.51,1.04l1.4,5.6c.1,.41,.47,.69,.89,.69h5.5c.42,0,.79-.29,.89-.69l1.4-5.6c.88-.28,1.71-.63,2.51-1.04l4.95,2.97c.36,.22,.82,.16,1.12-.14l3.89-3.89c.3-.3,.35-.76,.14-1.12l-2.97-4.95c.42-.79,.76-1.63,1.04-2.51l5.6-1.4c.41-.1,.69-.47,.69-.89v-5.5c0-.42-.29-.79-.7-.89h0Zm-1.14,5.67l-5.41,1.35c-.32,.08-.57,.32-.66,.64-.31,1.1-.74,2.13-1.29,3.09-.16,.28-.16,.63,0,.91,.02,.03,.03,.06,.05,.08l2.83,4.71-2.87,2.87-4.68-2.81s-.07-.05-.11-.07c-.28-.16-.63-.16-.91,0-.96,.55-2,.98-3.09,1.29-.32,.09-.56,.34-.64,.66l-1.35,5.41h-4.07l-1.35-5.41c-.08-.32-.32-.57-.64-.66-1.1-.31-2.13-.74-3.09-1.29-.28-.16-.63-.16-.91,0-.03,.02-.06,.03-.08,.05l-4.71,2.83-2.88-2.88,2.81-4.68s.05-.07,.07-.11c.16-.28,.16-.63,0-.91-.55-.96-.98-2-1.29-3.09-.09-.32-.34-.56-.66-.64l-5.41-1.35v-4.07l5.41-1.35c.32-.08,.57-.32,.66-.64,.31-1.1,.74-2.13,1.29-3.09,.16-.28,.16-.63,0-.91-.02-.04-.05-.07-.07-.11l-2.81-4.68,2.88-2.88,4.68,2.81s.07,.05,.11,.07c.29,.16,.64,.16,.91,0,.96-.55,2-.98,3.09-1.29,.32-.09,.56-.34,.64-.66l1.35-5.41h4.07l1.35,5.41c.08,.32,.32,.57,.64,.66,1.1,.31,2.13,.74,3.09,1.29,.28,.16,.63,.16,.91,0,.03-.02,.06-.03,.08-.05l4.71-2.83,2.87,2.87-2.81,4.68s-.05,.07-.07,.11c-.16,.28-.16,.63,0,.91,.55,.96,.98,2,1.29,3.09,.09,.32,.34,.56,.66,.64l5.41,1.35v4.07s0,0,0,0Z"/>
        <path class="cls-1" d="M33.5,24.33c-5.05,0-9.17,4.11-9.17,9.17s4.11,9.17,9.17,9.17,9.17-4.11,9.17-9.17-4.11-9.17-9.17-9.17h0Zm0,16.5c-4.04,0-7.33-3.29-7.33-7.33s3.29-7.33,7.33-7.33,7.33,3.29,7.33,7.33-3.29,7.33-7.33,7.33Z"/>
      </g>
    </g>
  </g>
</svg>