<?xml version="1.0" encoding="UTF-8"?>
<svg id="Layer_2" data-name="Layer 2" xmlns="http://www.w3.org/2000/svg" viewBox="0 0 67 67">
  <defs>
    <style>
      .cls-1 {
        fill: #e6e6e6;
      }

      .cls-2 {
        fill: none;
        stroke: #e6e6e6;
        stroke-miterlimit: 10;
        stroke-width: 3px;
      }
    </style>
  </defs>
  <g id="dos">
    <g>
      <rect class="cls-2" x="1.5" y="1.5" width="64" height="64" rx="8.27" ry="8.27"/>
      <g>
        <path class="cls-1" d="M45.12,31.17c-.78,0-1.41-.63-1.41-1.41s.63-1.41,1.41-1.41,1.41,.63,1.41,1.41-.63,1.41-1.41,1.41Zm0-2.04c-.35,0-.63,.28-.63,.63s.28,.63,.63,.63,.63-.28,.63-.63-.28-.63-.63-.63Z"/>
        <path class="cls-1" d="M45.12,37.61c-.78,0-1.41-.63-1.41-1.41s.63-1.41,1.41-1.41,1.41,.63,1.41,1.41-.63,1.41-1.41,1.41Zm0-2.04c-.35,0-.63,.28-.63,.63s.28,.63,.63,.63,.63-.28,.63-.63-.28-.63-.63-.63Z"/>
        <path class="cls-1" d="M41.97,34.39c-.78,0-1.41-.63-1.41-1.41s.63-1.41,1.41-1.41,1.41,.63,1.41,1.41-.63,1.41-1.41,1.41Zm0-2.04c-.35,0-.63,.28-.63,.63s.28,.63,.63,.63,.63-.28,.63-.63-.28-.63-.63-.63Z"/>
        <path class="cls-1" d="M48.27,34.39c-.78,0-1.41-.63-1.41-1.41s.63-1.41,1.41-1.41,1.41,.63,1.41,1.41-.63,1.41-1.41,1.41h0Zm0-2.04c-.35,0-.63,.28-.63,.63s.28,.63,.63,.63,.63-.28,.63-.63-.28-.63-.63-.63Z"/>
        <path class="cls-1" d="M50.87,48.24h-2.07c-1.15,0-2.3-.27-3.33-.77-1.03-.51-1.95-1.25-2.65-2.16l-3.5-4.52c-.23-.29-.59-.47-.96-.47h-9.72c-.38,0-.73,.17-.96,.47l-3.5,4.52c-.7,.91-1.62,1.66-2.65,2.16-1.03,.51-2.18,.77-3.33,.77h-2.07c-1.31,0-2.57-.56-3.45-1.54-.88-.98-1.3-2.29-1.15-3.59l1.48-13.48c.42-3.82,3.63-6.7,7.47-6.7h8.24c.75,0,1.45,.36,1.89,.97l.76,1.06c.05,.07,.13,.11,.22,.11h3.83c.09,0,.17-.04,.22-.12l.76-1.06c.43-.61,1.14-.97,1.89-.97h8.24c3.84,0,7.05,2.88,7.47,6.7l1.48,13.48c.14,1.31-.28,2.62-1.15,3.59-.88,.98-2.13,1.54-3.45,1.54h0Zm-22.23-9.97h9.72c1,0,1.96,.47,2.57,1.26l3.5,4.52c1.04,1.34,2.67,2.14,4.37,2.14h2.07c.74,0,1.43-.31,1.92-.86,.5-.55,.72-1.27,.64-2.01l-1.48-13.48c-.31-2.78-2.64-4.87-5.44-4.87h-8.24c-.09,0-.17,.04-.22,.11l-.76,1.06c-.43,.61-1.14,.97-1.89,.97h-3.83c-.75,0-1.45-.36-1.89-.97l-.76-1.06c-.05-.07-.14-.11-.22-.11h-8.24c-2.79,0-5.13,2.1-5.44,4.87l-1.48,13.48c-.08,.74,.15,1.45,.64,2.01,.5,.55,1.18,.86,1.92,.86h2.07c1.72,0,3.31-.78,4.37-2.14l3.5-4.52c.62-.8,1.56-1.26,2.57-1.26h0Z"/>
        <path class="cls-1" d="M18.19,32.13h7.62v2.04h-7.62v-2.04Z"/>
        <path class="cls-1" d="M30.4,32.13h1.95v2.04h-1.95v-2.04Z"/>
        <path class="cls-1" d="M34.65,32.13h1.95v2.04h-1.95v-2.04Z"/>
        <path class="cls-1" d="M20.97,29.34h2.04v7.62h-2.04v-7.62Z"/>
        <path class="cls-1" d="M32.37,18.76h2.04v7.62h-2.04v-7.62Z"/>
      </g>
    </g>
  </g>
</svg>