<?xml version="1.0" encoding="UTF-8"?>
<svg id="Layer_2" data-name="Layer 2" xmlns="http://www.w3.org/2000/svg" viewBox="0 0 67 67">
  <defs>
    <style>
      .cls-1 {
        fill: #e6e6e6;
      }

      .cls-2 {
        fill: none;
        stroke: #e6e6e6;
        stroke-miterlimit: 10;
        stroke-width: 3px;
      }
    </style>
  </defs>
  <g id="dos">
    <g>
      <rect class="cls-2" x="1.5" y="1.5" width="64" height="64" rx="8.27" ry="8.27"/>
      <path class="cls-1" d="M55.07,31.81L34.38,12.95c-.24-.22-.55-.34-.88-.34s-.64,.12-.88,.34L11.92,31.81c-.39,.36-.53,.94-.34,1.43,.19,.5,.68,.83,1.22,.83h3.9v19.01c0,.72,.58,1.3,1.3,1.3h30.99c.72,0,1.3-.58,1.3-1.3v-19.01h3.9c.53,0,1.02-.33,1.22-.83,.19-.5,.06-1.08-.34-1.43h0Zm-26.12,19.98v-10.73c0-2.5,2.04-4.54,4.54-4.54s4.54,2.04,4.54,4.54v10.73h-9.09Zm18.73-19.01v19.01h-7.04v-10.73c0-3.94-3.21-7.15-7.15-7.15s-7.15,3.21-7.15,7.15v10.73h-7.04v-19.01c0-.72-.58-1.3-1.3-1.3h-1.83l17.33-15.79,17.33,15.79h-1.83c-.72,0-1.3,.59-1.3,1.3h0Z"/>
    </g>
  </g>
</svg>