<?xml version="1.0" encoding="UTF-8"?>
<svg id="Layer_2" data-name="Layer 2" xmlns="http://www.w3.org/2000/svg" viewBox="0 0 72 72">
  <defs>
    <style>
      .cls-1 {
        stroke: #9dbebb;
      }

      .cls-1, .cls-2 {
        fill: none;
        stroke-miterlimit: 10;
      }

      .cls-2 {
        stroke: #f6c13b;
      }

      .cls-3 {
        fill: #9dbebb;
      }

      .cls-4 {
        fill: #031926;
      }
    </style>
  </defs>
  <g id="dos">
    <g>
      <g>
        <rect class="cls-4" x=".5" y=".5" width="71" height="71" rx="8.26" ry="8.26"/>
        <path class="cls-3" d="M63.24,1c4.28,0,7.76,3.48,7.76,7.76V63.24c0,4.28-3.48,7.76-7.76,7.76H8.76c-4.28,0-7.76-3.48-7.76-7.76V8.76C1,4.48,4.48,1,8.76,1H63.24m0-1H8.76C3.92,0,0,3.92,0,8.76V63.24c0,4.84,3.92,8.76,8.76,8.76H63.24c4.84,0,8.76-3.92,8.76-8.76V8.76c0-4.84-3.92-8.76-8.76-8.76h0Z"/>
      </g>
      <path class="cls-1" d="M28.51,61.55c15.7,0,28.43-12.73,28.43-28.43,0-12.56-10.18-22.74-22.74-22.74-10.05,0-18.19,8.15-18.19,18.19,0,8.04,6.52,14.55,14.55,14.55,6.43,0,11.64-5.21,11.64-11.64"/>
      <line class="cls-2" x1="31.5" y1="31.5" x2="42.5" y2="31.5"/>
    </g>
  </g>
</svg>