<?xml version="1.0" encoding="UTF-8"?>
<svg id="Layer_2" data-name="Layer 2" xmlns="http://www.w3.org/2000/svg" viewBox="0 0 72 72">
  <defs>
    <style>
      .cls-1 {
        stroke: #9dbebb;
      }

      .cls-1, .cls-2 {
        fill: none;
        stroke-miterlimit: 10;
      }

      .cls-2 {
        stroke: #f6c13b;
      }

      .cls-3 {
        fill: #9dbebb;
      }

      .cls-4 {
        fill: #031926;
      }
    </style>
  </defs>
  <g id="dos">
    <g>
      <g>
        <rect class="cls-4" x=".5" y=".5" width="71" height="71" rx="8.26" ry="8.26"/>
        <path class="cls-3" d="M63.24,1c4.28,0,7.76,3.48,7.76,7.76V63.24c0,4.28-3.48,7.76-7.76,7.76H8.76c-4.28,0-7.76-3.48-7.76-7.76V8.76C1,4.48,4.48,1,8.76,1H63.24m0-1H8.76C3.92,0,0,3.92,0,8.76V63.24c0,4.84,3.92,8.76,8.76,8.76H63.24c4.84,0,8.76-3.92,8.76-8.76V8.76c0-4.84-3.92-8.76-8.76-8.76h0Z"/>
      </g>
      <path class="cls-2" d="M35.89,27.21c.01,.29,.07,2.66-1.83,4.28-1.51,1.28-3.26,1.24-3.66,1.22"/>
      <path class="cls-2" d="M17.47,12.81c.01,.29,.07,2.66-1.83,4.28-1.51,1.28-3.26,1.24-3.66,1.22"/>
      <path class="cls-2" d="M30.36,40.76c.29-.01,2.66-.07,4.28,1.83,1.28,1.51,1.24,3.26,1.22,3.66"/>
      <path class="cls-2" d="M54.37,46.26c-.01-.29-.07-2.66,1.83-4.28,1.51-1.28,3.26-1.24,3.66-1.22"/>
      <path class="cls-2" d="M59.86,18.26c-.29,.01-2.66,.07-4.28-1.83-1.28-1.51-1.24-3.26-1.22-3.66"/>
      <g>
        <polyline class="cls-1" points="42.9 25.7 29 25.7 29 47.7 61.5 47.7 61.5 11.5 10.9 11.5 10.9 61.2"/>
        <line class="cls-1" x1="10.4" y1="60.7" x2="56.4" y2="60.7"/>
      </g>
      <path class="cls-2" d="M12.49,53.66c.29-.01,2.66-.07,4.28,1.83,1.28,1.51,1.24,3.26,1.22,3.66"/>
    </g>
  </g>
</svg>