<?xml version="1.0" encoding="UTF-8"?>
<svg id="Layer_2" data-name="Layer 2" xmlns="http://www.w3.org/2000/svg" viewBox="0 0 67 67">
  <defs>
    <style>
      .cls-1 {
        fill: #e6e6e6;
      }

      .cls-2 {
        fill: none;
        stroke: #e6e6e6;
        stroke-miterlimit: 10;
        stroke-width: 3px;
      }
    </style>
  </defs>
  <g id="Layer_1-2" data-name="Layer 1">
    <g>
      <rect class="cls-2" x="1.5" y="1.5" width="64" height="64" rx="8.27" ry="8.27"/>
      <path class="cls-1" d="M41.29,45.69l-1.5-3.95h-12.8l-1.5,4.04c-.59,1.58-1.09,2.64-1.5,3.19-.42,.55-1.1,.83-2.04,.83-.8,0-1.51-.29-2.13-.88-.62-.59-.92-1.25-.92-2,0-.43,.07-.87,.21-1.33,.14-.46,.38-1.1,.71-1.91l8.06-20.45c.23-.59,.5-1.29,.83-2.12,.32-.82,.67-1.51,1.03-2.05,.37-.54,.84-.98,1.44-1.32,.59-.34,1.33-.5,2.2-.5s1.63,.17,2.22,.5c.59,.34,1.07,.77,1.44,1.3,.37,.53,.67,1.1,.92,1.71,.25,.61,.57,1.42,.96,2.44l8.23,20.32c.64,1.55,.97,2.67,.97,3.37s-.3,1.4-.91,2.01c-.61,.61-1.34,.91-2.2,.91-.5,0-.93-.09-1.29-.27-.36-.18-.66-.42-.9-.73-.24-.31-.5-.78-.78-1.42-.28-.64-.52-1.2-.72-1.69Zm-12.63-8.74h9.41l-4.75-13-4.66,13Z"/>
    </g>
  </g>
</svg>