<?xml version="1.0" encoding="UTF-8"?>
<svg id="Layer_2" data-name="Layer 2" xmlns="http://www.w3.org/2000/svg" viewBox="0 0 72 72">
  <defs>
    <style>
      .cls-1 {
        stroke: #9dbebb;
      }

      .cls-1, .cls-2 {
        fill: none;
        stroke-miterlimit: 10;
      }

      .cls-3 {
        fill: #f6c13b;
        font-family: MyriadPro-Regular, 'Myriad Pro';
        font-size: 43.15px;
      }

      .cls-2 {
        stroke: #f6c13b;
      }

      .cls-4 {
        fill: #9dbebb;
      }

      .cls-5 {
        fill: #031926;
      }
    </style>
  </defs>
  <g id="dos">
    <g>
      <g>
        <rect class="cls-5" x=".5" y=".5" width="71" height="71" rx="8.26" ry="8.26"/>
        <path class="cls-4" d="M63.24,1c4.28,0,7.76,3.48,7.76,7.76V63.24c0,4.28-3.48,7.76-7.76,7.76H8.76c-4.28,0-7.76-3.48-7.76-7.76V8.76C1,4.48,4.48,1,8.76,1H63.24m0-1H8.76C3.92,0,0,3.92,0,8.76V63.24c0,4.84,3.92,8.76,8.76,8.76H63.24c4.84,0,8.76-3.92,8.76-8.76V8.76c0-4.84-3.92-8.76-8.76-8.76h0Z"/>
      </g>
      <path class="cls-1" d="M37.38,24.25c0,20.71-7.1,37.5-15.86,37.5-7.01,0-12.69-13.43-12.69-30,0-13.25,4.54-24,10.15-24,4.48,0,8.12,8.6,8.12,19.2,0,8.48-2.91,15.36-6.5,15.36-2.87,0-5.2-5.5-5.2-12.29,0-5.43,1.86-9.83,4.16-9.83,1.84,0,3.33,3.52,3.33,7.86,0,3.47-1.19,6.29-2.66,6.29-1.18,0-2.13-2.25-2.13-5.03,0-2.22,.76-4.03,1.7-4.03,.75,0,1.36,1.44,1.36,3.22,0,1.42-.49,2.58-1.09,2.58-.48,0-.87-.92-.87-2.06,0-.91,.31-1.65,.7-1.65,.31,0,.56,.59,.56,1.32,0,.58-.2,1.06-.45,1.06"/>
      <g>
        <g>
          <line class="cls-2" x1="49.38" y1="29.25" x2="40.38" y2="29.25"/>
          <line class="cls-2" x1="49.38" y1="31.25" x2="40.38" y2="31.25"/>
          <line class="cls-2" x1="49.38" y1="34.25" x2="40.38" y2="34.25"/>
          <line class="cls-2" x1="49.38" y1="61.25" x2="40.38" y2="61.25"/>
          <line class="cls-2" x1="49.38" y1="42.25" x2="40.38" y2="42.25"/>
          <circle class="cls-2" cx="45.38" cy="47.75" r=".5"/>
          <circle class="cls-2" cx="45.38" cy="50.75" r=".5"/>
          <circle class="cls-2" cx="45.38" cy="54.75" r=".5"/>
        </g>
        <text class="cls-3" transform="translate(51.25 57.86) scale(1.01 1)"><tspan x="0" y="0">}</tspan></text>
      </g>
    </g>
  </g>
</svg>