<?xml version="1.0" encoding="UTF-8"?>
<svg id="Layer_2" data-name="Layer 2" xmlns="http://www.w3.org/2000/svg" viewBox="0 0 67 67">
  <defs>
    <style>
      .cls-1 {
        fill: #e6e6e6;
      }

      .cls-2 {
        fill: none;
        stroke: #e6e6e6;
        stroke-miterlimit: 10;
        stroke-width: 3px;
      }
    </style>
  </defs>
  <g id="Layer_1-2" data-name="Layer 1">
    <g>
      <rect class="cls-2" x="1.5" y="1.5" width="64" height="64" rx="8.27" ry="8.27"/>
      <path class="cls-1" d="M33.91,49.25h-9.62c-1.39,0-2.38-.31-2.98-.93-.59-.62-.89-1.61-.89-2.98V21.67c0-1.39,.3-2.39,.91-3s1.59-.91,2.95-.91h10.21c1.5,0,2.81,.09,3.91,.28,1.1,.19,2.09,.54,2.96,1.07,.74,.44,1.4,1.01,1.98,1.69,.57,.68,1.01,1.43,1.31,2.26,.3,.82,.45,1.69,.45,2.61,0,3.15-1.58,5.46-4.73,6.92,4.14,1.32,6.21,3.88,6.21,7.69,0,1.76-.45,3.35-1.35,4.76-.9,1.41-2.12,2.45-3.65,3.13-.96,.4-2.06,.68-3.31,.85-1.25,.17-2.7,.25-4.36,.25Zm-7.11-26.71v8.14h5.84c1.59,0,2.82-.15,3.68-.45,.87-.3,1.53-.87,1.99-1.72,.36-.6,.54-1.27,.54-2.02,0-1.59-.57-2.65-1.7-3.17-1.13-.52-2.86-.78-5.18-.78h-5.18Zm6.64,12.72h-6.64v9.2h6.85c4.31,0,6.47-1.55,6.47-4.66,0-1.59-.56-2.74-1.68-3.46-1.12-.72-2.79-1.07-5.01-1.07Z"/>
    </g>
  </g>
</svg>