<?xml version="1.0" encoding="UTF-8"?>
<svg id="Layer_2" data-name="Layer 2" xmlns="http://www.w3.org/2000/svg" viewBox="0 0 72 72">
  <defs>
    <style>
      .cls-1 {
        stroke: #9dbebb;
      }

      .cls-1, .cls-2 {
        fill: none;
        stroke-miterlimit: 10;
      }

      .cls-2 {
        stroke: #f6c13b;
      }

      .cls-3 {
        fill: #9dbebb;
      }

      .cls-4 {
        fill: #031926;
      }
    </style>
  </defs>
  <g id="dos">
    <g>
      <g>
        <path class="cls-4" d="M8.76,.5H63.24c4.56,0,8.26,3.7,8.26,8.26V63.24c0,4.56-3.7,8.26-8.26,8.26H8.76c-4.56,0-8.26-3.7-8.26-8.26V8.76C.5,4.2,4.2,.5,8.76,.5Z"/>
        <path class="cls-3" d="M63.24,1c4.28,0,7.76,3.48,7.76,7.76V63.24c0,4.28-3.48,7.76-7.76,7.76H8.76c-4.28,0-7.76-3.48-7.76-7.76V8.76C1,4.48,4.48,1,8.76,1H63.24m0-1H8.76C3.92,0,0,3.92,0,8.76V63.24c0,4.84,3.92,8.76,8.76,8.76H63.24c4.84,0,8.76-3.92,8.76-8.76V8.76c0-4.84-3.92-8.76-8.76-8.76h0Z"/>
      </g>
      <ellipse class="cls-1" cx="47.37" cy="39.17" rx="13" ry="18"/>
      <path class="cls-1" d="M22.37,15.17c7.93-.8,19.99-.94,31,8"/>
      <path class="cls-1" d="M11.63,48.14c5.56-.56,19.69-1.18,31,8"/>
      <line class="cls-2" x1="60.29" y1="39.05" x2="34.79" y2="39.05"/>
    </g>
  </g>
</svg>