<?xml version="1.0" encoding="UTF-8"?>
<svg id="Layer_2" data-name="Layer 2" xmlns="http://www.w3.org/2000/svg" viewBox="0 0 67 67">
  <defs>
    <style>
      .cls-1 {
        fill: #e6e6e6;
      }

      .cls-2 {
        fill: none;
        stroke: #e6e6e6;
        stroke-miterlimit: 10;
        stroke-width: 3px;
      }
    </style>
  </defs>
  <g id="Layer_1-2" data-name="Layer 1">
    <g>
      <rect class="cls-2" x="1.5" y="1.5" width="64" height="64" rx="8.27" ry="8.27"/>
      <path class="cls-1" d="M47.53,39.3c0,1-.25,2.09-.74,3.25-.49,1.17-1.27,2.31-2.33,3.44-1.06,1.12-2.41,2.04-4.06,2.74-1.65,.7-3.57,1.05-5.76,1.05-1.66,0-3.17-.16-4.53-.47-1.36-.31-2.6-.81-3.71-1.47-1.11-.67-2.13-1.54-3.06-2.63-.83-.99-1.54-2.09-2.13-3.32-.59-1.22-1.03-2.53-1.32-3.92-.29-1.39-.44-2.86-.44-4.43,0-2.54,.37-4.8,1.11-6.81,.74-2,1.79-3.72,3.17-5.15,1.38-1.42,2.99-2.51,4.83-3.25,1.85-.74,3.82-1.12,5.91-1.12,2.55,0,4.82,.51,6.81,1.53,1.99,1.02,3.52,2.27,4.58,3.77,1.06,1.5,1.59,2.91,1.59,4.24,0,.73-.26,1.38-.77,1.93s-1.14,.84-1.87,.84c-.82,0-1.43-.19-1.84-.58s-.86-1.05-1.36-2c-.83-1.56-1.81-2.73-2.93-3.5-1.12-.77-2.51-1.16-4.16-1.16-2.62,0-4.71,1-6.26,2.99-1.55,1.99-2.33,4.82-2.33,8.49,0,2.45,.34,4.49,1.03,6.11,.69,1.63,1.66,2.84,2.92,3.64,1.26,.8,2.74,1.2,4.43,1.2,1.83,0,3.38-.45,4.65-1.36,1.27-.91,2.22-2.25,2.87-4.01,.27-.83,.61-1.51,1.01-2.03,.4-.52,1.04-.78,1.93-.78,.76,0,1.41,.27,1.96,.79,.54,.53,.82,1.19,.82,1.98Z"/>
    </g>
  </g>
</svg>