<?xml version="1.0" encoding="UTF-8"?>
<svg id="Layer_2" data-name="Layer 2" xmlns="http://www.w3.org/2000/svg" viewBox="0 0 72 72">
  <defs>
    <style>
      .cls-1 {
        stroke: #9dbebb;
      }

      .cls-1, .cls-2 {
        fill: none;
      }

      .cls-1, .cls-2, .cls-3 {
        stroke-miterlimit: 10;
      }

      .cls-2 {
        stroke: #f6c13b;
      }

      .cls-3 {
        fill: #468189;
        stroke: #468189;
      }

      .cls-4 {
        fill: #9dbebb;
      }

      .cls-5 {
        fill: #031926;
      }
    </style>
  </defs>
  <g id="dos">
    <g>
      <g>
        <rect class="cls-5" x=".5" y=".5" width="71" height="71" rx="8.26" ry="8.26"/>
        <path class="cls-4" d="M63.24,1c4.28,0,7.76,3.48,7.76,7.76V63.24c0,4.28-3.48,7.76-7.76,7.76H8.76c-4.28,0-7.76-3.48-7.76-7.76V8.76C1,4.48,4.48,1,8.76,1H63.24m0-1H8.76C3.92,0,0,3.92,0,8.76V63.24c0,4.84,3.92,8.76,8.76,8.76H63.24c4.84,0,8.76-3.92,8.76-8.76V8.76c0-4.84-3.92-8.76-8.76-8.76h0Z"/>
      </g>
      <g>
        <line class="cls-3" x1="35.66" y1="9" x2="35.66" y2="64"/>
        <path class="cls-1" d="M35.5,8.5c3.04,1.7,7.07,4.37,6.69,6.81-.64,4.13-13.36,4.52-13.38,6.81-.02,2.88,19.94,4.04,20.06,6.81,.12,2.85-26.74,4.28-26.75,6.81,0,2.83,33.43,4.24,33.44,6.81,0,2.82-40.12,4.22-40.13,6.81,0,2.8,46.75,3.78,46.81,6.81,.04,1.74-15.19,3.95-53.5,6.81"/>
        <path class="cls-2" d="M35.75,16c2.34,0,4.26-2.03,4.26-4.5"/>
        <line class="cls-3" x1="35.66" y1="22" x2="35.66" y2="26.01"/>
        <line class="cls-3" x1="35.66" y1="34.97" x2="35.66" y2="45"/>
        <line class="cls-3" x1="35.66" y1="49.75" x2="35.66" y2="53.75"/>
      </g>
    </g>
  </g>
</svg>