<?xml version="1.0" encoding="UTF-8"?>
<svg id="Layer_2" data-name="Layer 2" xmlns="http://www.w3.org/2000/svg" viewBox="0 0 64 64">
  <defs>
    <style>
      .cls-1 {
        fill: #e6e6e6;
      }
    </style>
  </defs>
  <g id="Layer_1-2" data-name="Layer 1">
    <g>
      <path class="cls-1" d="M58.63,32c0,1.31-.09,2.62-.26,3.92,.03-.23,.07-.48,.09-.71-.35,2.58-1.03,5.1-2.05,7.49,.09-.21,.18-.43,.27-.64-.98,2.31-2.25,4.49-3.78,6.48,.14-.18,.28-.36,.42-.54-1.54,2-3.34,3.79-5.33,5.33,.18-.14,.36-.28,.54-.42-1.99,1.53-4.17,2.8-6.48,3.78,.21-.09,.43-.18,.64-.27-2.39,1.01-4.92,1.7-7.49,2.05,.23-.03,.48-.07,.71-.09-2.6,.34-5.23,.34-7.83,0,.23,.03,.48,.07,.71,.09-2.58-.35-5.1-1.03-7.49-2.05,.21,.09,.43,.18,.64,.27-2.31-.98-4.49-2.25-6.48-3.78,.18,.14,.36,.28,.54,.42-2-1.54-3.79-3.34-5.33-5.33,.14,.18,.28,.36,.42,.54-1.53-1.99-2.8-4.17-3.78-6.48,.09,.21,.18,.43,.27,.64-1.01-2.39-1.7-4.92-2.05-7.49,.03,.23,.07,.48,.09,.71-.34-2.6-.34-5.23,0-7.83-.03,.23-.07,.48-.09,.71,.35-2.58,1.03-5.1,2.05-7.49-.09,.21-.18,.43-.27,.64,.98-2.31,2.25-4.49,3.78-6.48-.14,.18-.28,.36-.42,.54,1.54-2,3.34-3.79,5.33-5.33-.18,.14-.36,.28-.54,.42,1.99-1.53,4.17-2.8,6.48-3.78-.21,.09-.43,.18-.64,.27,2.39-1.01,4.92-1.7,7.49-2.05-.23,.03-.48,.07-.71,.09,2.6-.34,5.23-.34,7.83,0-.23-.03-.48-.07-.71-.09,2.58,.35,5.1,1.03,7.49,2.05-.21-.09-.43-.18-.64-.27,2.31,.98,4.49,2.25,6.48,3.78-.18-.14-.36-.28-.54-.42,2,1.54,3.79,3.34,5.33,5.33-.14-.18-.28-.36-.42-.54,1.53,1.99,2.8,4.17,3.78,6.48-.09-.21-.18-.43-.27-.64,1.01,2.39,1.7,4.92,2.05,7.49-.03-.23-.07-.48-.09-.71,.17,1.3,.26,2.61,.26,3.92,0,1.4,1.23,2.75,2.68,2.68s2.68-1.18,2.68-2.68c0-3.29-.5-6.63-1.52-9.77-.99-3.05-2.41-5.98-4.28-8.59-.97-1.37-2.03-2.68-3.2-3.89-1.17-1.21-2.45-2.29-3.78-3.32-2.54-1.95-5.37-3.43-8.37-4.54C39.76,.76,36.46,.15,33.18,.02c-3.33-.13-6.71,.28-9.92,1.19-3.07,.87-6.04,2.21-8.71,3.97-2.64,1.74-5.06,3.84-7.07,6.28-1.08,1.31-2.09,2.68-2.96,4.14-.88,1.46-1.6,2.99-2.24,4.57C1.03,23.2,.34,26.43,.09,29.7c-.25,3.32,.05,6.71,.83,9.95,.76,3.12,2.03,6.16,3.69,8.91,1.64,2.69,3.68,5.19,6.04,7.28,2.37,2.11,5.04,3.9,7.93,5.21,1.56,.7,3.16,1.32,4.81,1.78,1.69,.47,3.41,.76,5.15,.97,3.34,.4,6.74,.19,10.03-.48,3.15-.64,6.22-1.81,9.02-3.37,2.75-1.54,5.31-3.51,7.49-5.79,2.19-2.29,4.09-4.93,5.5-7.77,1.44-2.9,2.49-6,2.98-9.2,.26-1.72,.43-3.44,.44-5.18,0-1.4-1.23-2.75-2.68-2.68-1.46,.07-2.69,1.18-2.69,2.68h0Z"/>
      <path class="cls-1" d="M29.31,26.7v19.86c0,1.4,1.23,2.75,2.68,2.68,1.46-.07,2.68-1.18,2.68-2.68V26.7c0-1.4-1.23-2.75-2.68-2.68-1.46,.07-2.68,1.18-2.68,2.68h0Z"/>
      <path class="cls-1" d="M29.31,17.45v.54c-.01,.37,.06,.71,.23,1.03,.11,.34,.3,.62,.56,.87,.24,.26,.53,.45,.87,.56,.32,.17,.66,.25,1.03,.23,.23-.03,.48-.07,.71-.09,.46-.13,.85-.36,1.19-.69,.14-.18,.28-.36,.42-.54,.24-.42,.36-.87,.37-1.35v-.54c.01-.37-.06-.71-.23-1.03-.11-.34-.3-.62-.56-.87-.24-.26-.53-.45-.87-.56-.32-.17-.66-.25-1.03-.23-.23,.03-.48,.07-.71,.09-.46,.13-.85,.36-1.19,.69-.14,.18-.28,.36-.42,.54-.25,.42-.37,.87-.37,1.35Z"/>
    </g>
  </g>
</svg>