<?xml version="1.0" encoding="UTF-8"?>
<svg id="Layer_2" data-name="Layer 2" xmlns="http://www.w3.org/2000/svg" viewBox="0 0 64 64">
  <defs>
    <style>
      .cls-1 {
        fill: #d3a591;
      }
    </style>
  </defs>
  <g id="dos">
    <path class="cls-1" d="M51.2,32c0,1.77-1.43,3.2-3.2,3.2H23.71l7.36,7.33c1.25,1.24,1.26,3.27,.02,4.53,0,0-.01,.01-.02,.02-1.24,1.25-3.27,1.26-4.53,.02,0,0-.01-.01-.02-.02l-12.8-12.8c-.29-.3-.52-.66-.67-1.06-.32-.78-.32-1.65,0-2.43,.15-.39,.38-.75,.67-1.06l12.8-12.8c1.25-1.25,3.29-1.25,4.54,0s1.25,3.29,0,4.54l-7.36,7.33h24.29c1.77,0,3.2,1.43,3.2,3.2Zm12.8,0c0,17.67-14.33,32-32,32S0,49.67,0,32,14.33,0,32,0s32,14.33,32,32Zm-6.4,0c0-14.14-11.46-25.6-25.6-25.6S6.4,17.86,6.4,32s11.46,25.6,25.6,25.6,25.6-11.46,25.6-25.6Z"/>
  </g>
</svg>