<?xml version="1.0" encoding="UTF-8"?>
<svg id="Layer_2" data-name="Layer 2" xmlns="http://www.w3.org/2000/svg" viewBox="0 0 64 64">
  <defs>
    <style>
      .cls-1 {
        fill: #d3a591;
      }
    </style>
  </defs>
  <g id="Layer_1-2" data-name="Layer 1">
    <g>
      <path class="cls-1" d="M32,0C14.33,0,0,14.33,0,32s14.33,32,32,32,32-14.33,32-32C63.98,14.34,49.66,.02,32,0Zm0,57.6c-14.14,0-25.6-11.46-25.6-25.6S17.86,6.4,32,6.4s25.6,11.46,25.6,25.6h0c-.01,14.13-11.47,25.59-25.6,25.6Z"/>
      <path class="cls-1" d="M47.19,28.8H16.81c-1.77,0-3.2,1.43-3.2,3.2,0,1.77,1.43,3.2,3.2,3.2h30.38c1.77,0,3.2-1.43,3.2-3.2,0-1.77-1.43-3.2-3.2-3.2Z"/>
    </g>
  </g>
</svg>