<?xml version="1.0" encoding="UTF-8"?>
<svg id="Layer_2" data-name="Layer 2" xmlns="http://www.w3.org/2000/svg" viewBox="0 0 67 67">
  <defs>
    <style>
      .cls-1 {
        stroke-width: 3px;
      }

      .cls-1, .cls-2 {
        fill: none;
        stroke: #1c6b87;
        stroke-miterlimit: 10;
      }

      .cls-2 {
        stroke-width: 2px;
      }
    </style>
  </defs>
  <g id="Layer_1-2" data-name="Layer 1">
    <g>
      <g>
        <path class="cls-2" d="M41.24,43.38h-3.73c-.78,0-1.38-.6-1.38-1.38V24.95c0-.74,.6-1.38,1.38-1.38h3.73c.78,0,1.38,.65,1.38,1.38v17.1c0,.74-.6,1.34-1.38,1.34Z"/>
        <path class="cls-2" d="M52.12,43.38h-3.73c-.78,0-1.38-.6-1.38-1.38V24.95c0-.74,.6-1.38,1.38-1.38h3.73c.78,0,1.38,.65,1.38,1.38v17.1c0,.74-.65,1.34-1.38,1.34Z"/>
        <path class="cls-2" d="M31.66,32.28L15.57,23.02c-.92-.55-2.07,.14-2.07,1.2v18.57c0,1.06,1.15,1.75,2.07,1.2l16.08-9.31c.92-.55,.92-1.84,0-2.4Z"/>
      </g>
      <rect class="cls-1" x="1.5" y="1.5" width="64" height="64" rx="8.27" ry="8.27"/>
    </g>
  </g>
</svg>