<?xml version="1.0" encoding="UTF-8"?>
<svg id="Layer_2" data-name="Layer 2" xmlns="http://www.w3.org/2000/svg" viewBox="0 0 64.5 64.5">
  <defs>
    <style>
      .cls-1 {
        fill: none;
      }

      .cls-1, .cls-2 {
        stroke: #1c6b87;
        stroke-miterlimit: 10;
        stroke-width: .5px;
      }

      .cls-2 {
        fill: #fee89a;
      }
    </style>
  </defs>
  <g id="Layer_1-2" data-name="Layer 1">
    <g>
      <g>
        <rect class="cls-1" x=".25" y=".25" width="64" height="64"/>
        <line class="cls-1" x1=".25" y1="57.85" x2="64.25" y2="57.85"/>
        <line class="cls-1" x1=".25" y1="51.45" x2="64.25" y2="51.45"/>
        <line class="cls-1" x1=".25" y1="45.05" x2="64.25" y2="45.05"/>
        <line class="cls-1" x1=".25" y1="38.65" x2="64.25" y2="38.65"/>
        <line class="cls-1" x1=".25" y1="32.25" x2="64.25" y2="32.25"/>
        <line class="cls-1" x1=".25" y1="25.85" x2="64.25" y2="25.85"/>
        <line class="cls-1" x1=".25" y1="19.45" x2="64.25" y2="19.45"/>
        <line class="cls-1" x1=".25" y1="13.05" x2="64.25" y2="13.05"/>
        <line class="cls-1" x1=".25" y1="6.65" x2="64.25" y2="6.65"/>
        <line class="cls-1" x1="57.85" y1=".25" x2="57.85" y2="64.25"/>
        <line class="cls-1" x1="51.45" y1=".25" x2="51.45" y2="64.25"/>
        <line class="cls-1" x1="45.05" y1=".25" x2="45.05" y2="64.25"/>
        <line class="cls-1" x1="38.65" y1=".25" x2="38.65" y2="64.25"/>
        <line class="cls-1" x1="32.25" y1=".25" x2="32.25" y2="64.25"/>
        <line class="cls-1" x1="25.85" y1=".25" x2="25.85" y2="64.25"/>
        <line class="cls-1" x1="19.45" y1=".25" x2="19.45" y2="64.25"/>
        <line class="cls-1" x1="13.05" y1=".25" x2="13.05" y2="64.25"/>
        <line class="cls-1" x1="6.65" y1=".25" x2="6.65" y2="64.25"/>
      </g>
      <g>
        <rect class="cls-2" x="6.65" y="13.1" width="6.36" height="6.31"/>
        <rect class="cls-2" x="13.08" y="19.53" width="6.36" height="6.31"/>
        <rect class="cls-2" x="6.65" y="19.53" width="6.36" height="6.31"/>
        <rect class="cls-2" x="19.39" y="13.17" width="6.36" height="6.31"/>
        <rect class="cls-2" x="19.39" y="6.71" width="6.36" height="6.31"/>
        <rect class="cls-2" x="13.08" y="6.71" width="6.36" height="6.31"/>
      </g>
      <g>
        <rect class="cls-2" x="38.67" y="45.09" width="6.36" height="6.31"/>
        <rect class="cls-2" x="45.1" y="51.52" width="6.36" height="6.31"/>
        <rect class="cls-2" x="38.67" y="51.52" width="6.36" height="6.31"/>
        <rect class="cls-2" x="51.44" y="45.13" width="6.36" height="6.31"/>
        <rect class="cls-2" x="51.41" y="38.7" width="6.36" height="6.31"/>
        <rect class="cls-2" x="45.1" y="38.7" width="6.36" height="6.31"/>
      </g>
      <g>
        <rect class="cls-2" x="6.63" y="45.1" width="6.36" height="6.31"/>
        <rect class="cls-2" x="13.07" y="38.67" width="6.36" height="6.31"/>
        <rect class="cls-2" x="6.63" y="38.67" width="6.36" height="6.31"/>
        <rect class="cls-2" x="19.41" y="45.06" width="6.36" height="6.31"/>
        <rect class="cls-2" x="19.38" y="51.49" width="6.36" height="6.31"/>
        <rect class="cls-2" x="13.07" y="51.49" width="6.36" height="6.31"/>
      </g>
      <g>
        <rect class="cls-2" x="38.72" y="13.06" width="6.36" height="6.31"/>
        <rect class="cls-2" x="45.15" y="6.63" width="6.36" height="6.31"/>
        <rect class="cls-2" x="38.72" y="6.63" width="6.36" height="6.31"/>
        <rect class="cls-2" x="51.49" y="13.02" width="6.36" height="6.31"/>
        <rect class="cls-2" x="51.46" y="19.44" width="6.36" height="6.31"/>
        <rect class="cls-2" x="45.15" y="19.44" width="6.36" height="6.31"/>
      </g>
    </g>
  </g>
</svg>