<?xml version="1.0" encoding="UTF-8"?>
<svg id="Layer_2" data-name="Layer 2" xmlns="http://www.w3.org/2000/svg" viewBox="0 0 67 67">
  <defs>
    <style>
      .cls-1 {
        fill: #e6e6e6;
      }

      .cls-2 {
        fill: none;
        stroke: #e6e6e6;
        stroke-miterlimit: 10;
        stroke-width: 3px;
      }
    </style>
  </defs>
  <g id="dos">
    <g>
      <rect class="cls-2" x="1.5" y="1.5" width="64" height="64" rx="8.27" ry="8.27"/>
      <g>
        <path class="cls-1" d="M53.3,38.81l-14.69,2.99c-.79,.16-1.75,.87-2.14,1.57l-.18,.32c-.39,.7-.07,1.15,.72,.99l14.69-2.99c.79-.16,1.75-.87,2.14-1.57l.18-.32c.39-.7,.07-1.15-.72-.99h0Z"/>
        <path class="cls-1" d="M38.84,21.86l-3.02,.61c-.79,.16-1.3,.94-1.14,1.72l3.03,14.9c.16,.79,.94,1.3,1.72,1.14l14.9-3.03c.79-.16,1.3-.94,1.14-1.72l-3.03-14.9c-.16-.79-.94-1.3-1.72-1.14l-9.35,1.9-2.54,.52Zm-17.47,7.59h-5.56c-.8,0-1.46,.66-1.46,1.46v15.2c0,.8,.66,1.46,1.46,1.46h15.2c.8,0,1.46-.66,1.46-1.46v-12.12l1.87,9.18c.16,.79,.63,.87,1.04,.17l.71-1.2c.41-.69,.61-1.9,.45-2.69l-2.89-14.23c-.16-.79-.63-.87-1.03-.17l-.71,1.2c-.41,.69-.61,1.9-.45,2.69l.13,.62c-.17-.07-.36-.11-.56-.11h-7.33s-2.32,0-2.32,0Zm-2.64,15.53c-.93,0-1.68-.75-1.68-1.68s.75-1.68,1.68-1.68,1.68,.75,1.68,1.68-.75,1.68-1.68,1.68Zm0-9.1c-.93,0-1.68-.75-1.68-1.68s.75-1.68,1.68-1.68,1.68,.75,1.68,1.68-.75,1.68-1.68,1.68Zm8.83-3.35c.93,0,1.68,.75,1.68,1.68s-.75,1.68-1.68,1.68-1.68-.75-1.68-1.68,.75-1.68,1.68-1.68Zm0,9.1c.93,0,1.68,.75,1.68,1.68s-.75,1.68-1.68,1.68-1.68-.75-1.68-1.68,.75-1.68,1.68-1.68Zm11.89-13.85c-.93,0-1.68-.75-1.68-1.68s.75-1.68,1.68-1.68,1.68,.75,1.68,1.68-.75,1.68-1.68,1.68Zm5.62,3.74c-.93,0-1.68-.75-1.68-1.68s.75-1.68,1.68-1.68,1.68,.75,1.68,1.68c0,.93-.75,1.68-1.68,1.68Zm6.14,3.81c-.93,0-1.68-.75-1.68-1.68s.75-1.68,1.68-1.68,1.68,.75,1.68,1.68-.75,1.68-1.68,1.68Z"/>
        <path class="cls-1" d="M12.79,30.34l-.72,1.1c-.32,.49-.57,1.36-.57,1.93v11.09c0,.58,.32,1.4,.7,1.83l.46,.51c.39,.43,.7,.31,.7-.27V30.51c0-.58-.26-.66-.57-.17h0Z"/>
      </g>
    </g>
  </g>
</svg>