<?xml version="1.0" encoding="UTF-8"?>
<svg id="Layer_2" data-name="Layer 2" xmlns="http://www.w3.org/2000/svg" viewBox="0 0 65 65">
  <defs>
    <style>
      .cls-1 {
        fill: none;
      }

      .cls-1, .cls-2 {
        stroke: #000;
        stroke-miterlimit: 10;
      }
    </style>
  </defs>
  <g id="Layer_1-2" data-name="Layer 1">
    <g>
      <g>
        <path class="cls-2" d="M40.38,24.61c-.48-.35-1.16-.25-1.51,.23l-9.63,13.04-3.21-3.18c-.43-.42-1.11-.42-1.53,0-.42,.42-.42,1.11,0,1.53l4.1,4.06c.2,.2,.48,.31,.76,.31,.03,0,.05,0,.08,0,.31-.02,.6-.18,.79-.44l10.37-14.05c.35-.48,.25-1.16-.23-1.51Z"/>
        <path class="cls-2" d="M34.39,10.39c-11.54,0-21.04,8.9-22.01,20.19l-1.99-2.22c-.4-.45-1.09-.48-1.53-.08-.44,.4-.48,1.08-.08,1.53l3.57,3.98c.21,.24,.51,.36,.81,.36,.26,0,.52-.09,.72-.28l3.98-3.57c.44-.4,.48-1.08,.08-1.53-.4-.45-1.09-.48-1.53-.08l-1.85,1.66c1.07-9.99,9.55-17.8,19.83-17.8,11,0,19.95,8.95,19.95,19.95s-8.95,19.95-19.95,19.95c-.6,0-1.08,.48-1.08,1.08s.48,1.08,1.08,1.08c12.19,0,22.11-9.92,22.11-22.11s-9.92-22.11-22.11-22.11Z"/>
      </g>
      <rect class="cls-1" x=".5" y=".5" width="64" height="64" rx="8.27" ry="8.27"/>
    </g>
  </g>
</svg>