<?xml version="1.0" encoding="UTF-8"?>
<svg id="Layer_2" data-name="Layer 2" xmlns="http://www.w3.org/2000/svg" viewBox="0 0 67 67">
  <defs>
    <style>
      .cls-1 {
        stroke-width: 3px;
      }

      .cls-1, .cls-2 {
        fill: none;
        stroke: #1c6b87;
        stroke-miterlimit: 10;
      }

      .cls-2 {
        stroke-width: 2px;
      }
    </style>
  </defs>
  <g id="Layer_1-2" data-name="Layer 1">
    <g>
      <g>
        <g>
          <path class="cls-2" d="M18.82,17.75h5.61s0,.01,0,.01c.31,0,.56-.25,.56-.56,0-.31-.25-.56-.56-.56h-4.05c3.74-2.92,8.36-4.51,13.13-4.51,11.79,0,21.37,9.59,21.37,21.38,0,4.28-1.26,8.42-3.65,11.95-.17,.26-.11,.61,.15,.78,.1,.07,.21,.1,.31,.1,.18,0,.36-.09,.47-.25,2.51-3.72,3.84-8.07,3.84-12.58,0-12.41-10.09-22.5-22.5-22.5-5.14,0-10.13,1.77-14.12,4.99v-4.43c-.01-.31-.26-.56-.57-.56h0c-.31,0-.56,.25-.56,.56v5.63c.01,.31,.26,.56,.57,.56Z"/>
          <path class="cls-2" d="M33.5,56c5.14,0,10.1-1.75,14.09-4.96v4.4c0,.31,.26,.56,.57,.56h0c.31,0,.56-.25,.56-.56v-5.64c-.01-.31-.26-.56-.57-.56h-5.61c-.31,0-.56,.25-.56,.56s.25,.56,.56,.56h4.09c-3.74,2.92-8.35,4.51-13.13,4.51-11.79,0-21.38-9.59-21.38-21.38,0-4.28,1.26-8.42,3.65-11.95,.17-.26,.11-.61-.15-.78-.26-.17-.61-.11-.78,.15-2.51,3.72-3.84,8.07-3.84,12.58,0,12.41,10.09,22.5,22.5,22.5Z"/>
        </g>
        <path class="cls-2" d="M41.56,25.56v-4.33c0-.31-.25-.56-.56-.56h-15c-.31,0-.56,.25-.56,.56v4.33c0,4.36,2,6.47,4.19,7.83-2.19,1.36-4.19,3.46-4.19,7.83v4.33c0,.31,.25,.56,.56,.56h15c.31,0,.56-.25,.56-.56v-4.33c0-4.36-2-6.47-4.19-7.83,2.19-1.36,4.19-3.46,4.19-7.83Zm-5.58,7.33c-.18,.1-.29,.29-.29,.49s.11,.4,.29,.49c2.67,1.45,4.46,3.25,4.46,7.33v3.77h-13.88v-3.77c0-4.09,1.78-5.89,4.46-7.33,.18-.1,.29-.29,.29-.49s-.11-.4-.29-.49c-2.67-1.45-4.46-3.25-4.46-7.33v-3.77h13.88v3.77c0,4.09-1.78,5.89-4.46,7.33Z"/>
      </g>
      <rect class="cls-1" x="1.5" y="1.5" width="64" height="64" rx="8.27" ry="8.27"/>
    </g>
  </g>
</svg>